name rise38.3101peak57.3503fall81.6963.mot
datacolumns 19
datarows 14
range 6.95498300000000 6.97664900000000
endheader
time	ground_force1_vx	ground_force1_vy	ground_force1_vz	ground_force1_px	ground_force1_py	ground_force1_pz	ground_force2_vx	ground_force2_vy	ground_force2_vz	ground_force2_px	ground_force2_py	ground_force2_pz	ground_torque1_x	ground_torque1_y	ground_torque1_z	ground_torque2_x	ground_torque2_y	ground_torque2_z	
6.95498300000000	-50.49740200000000	826.48394900000005	61.62506400000000	0.11731700000000	0.00000000000000	0.13298500000000	-6.13756900000000	20.85565400000000	4.68631300000000	0.00000000000000	0.00000000000000	0.00000000000000	0.00000000000000	27.30363800000000	0.00000000000000	0.00000000000000	1.69026900000000	0.00000000000000	
6.95664800000000	-50.65251400000000	824.68951000000004	61.51057900000000	0.11678000000000	0.00000000000000	0.13293200000000	-7.45009200000000	26.44375600000000	5.78485100000000	0.35960400000000	0.00000000000000	-0.05663800000000	0.00000000000000	27.19541800000000	0.00000000000000	0.00000000000000	3.75938200000000	0.00000000000000	
6.95831400000000	-50.81444100000000	822.74508000000003	61.36910600000000	0.11625900000000	0.00000000000000	0.13287600000000	-8.73892500000000	32.34872300000000	6.89778900000000	0.36357500000000	0.00000000000000	-0.05705000000000	0.00000000000000	27.08644400000000	0.00000000000000	0.00000000000000	4.53124400000000	0.00000000000000	
6.95997400000000	-50.98398200000000	820.65051100000005	61.20028000000000	0.11575100000000	0.00000000000000	0.13281600000000	-9.95761000000000	38.44549900000000	7.99169700000000	0.36727400000000	0.00000000000000	-0.05744200000000	0.00000000000000	26.97691700000000	0.00000000000000	0.00000000000000	5.30420800000000	0.00000000000000	
6.96164300000000	-51.16191200000000	818.40579400000001	61.00378700000000	0.11525800000000	0.00000000000000	0.13275200000000	-11.06411800000000	44.61364900000000	9.03549900000000	0.37072600000000	0.00000000000000	-0.05781600000000	0.00000000000000	26.86703300000000	0.00000000000000	0.00000000000000	6.05734300000000	0.00000000000000	
6.96330900000000	-51.34898400000000	816.01104599999996	60.77935800000000	0.11477800000000	0.00000000000000	0.13268400000000	-12.02364100000000	50.74637500000000	10.00257300000000	0.37395400000000	0.00000000000000	-0.05817600000000	0.00000000000000	26.75698000000000	0.00000000000000	0.00000000000000	6.77215100000000	0.00000000000000	
6.96498000000000	-51.54591800000000	813.46650499999998	60.52677600000000	0.11431200000000	0.00000000000000	0.13261300000000	-12.81047400000000	56.75734800000000	10.87224500000000	0.37697500000000	0.00000000000000	-0.05852500000000	0.00000000000000	26.64693600000000	0.00000000000000	0.00000000000000	7.43367600000000	0.00000000000000	
6.96664300000000	-51.75340000000000	810.77252399999998	60.24586900000000	0.11385800000000	0.00000000000000	0.13253700000000	-13.40891500000000	62.58490400000000	11.63059500000000	0.37980600000000	0.00000000000000	-0.05886600000000	0.00000000000000	26.53707600000000	0.00000000000000	0.00000000000000	8.03116600000000	0.00000000000000	
6.96831100000000	-51.97207700000000	807.92956200000003	59.93651600000000	0.11341500000000	0.00000000000000	0.13245700000000	-13.81319700000000	68.19355400000001	12.27057700000000	0.38246000000000	0.00000000000000	-0.05919900000000	0.00000000000000	26.42756100000000	0.00000000000000	0.00000000000000	8.55829500000000	0.00000000000000	
6.96997400000000	-52.20255400000000	804.93817200000001	59.59864600000000	0.11298400000000	0.00000000000000	0.13237300000000	-14.02662700000000	73.57309700000000	12.79156200000000	0.38494900000000	0.00000000000000	-0.05952700000000	0.00000000000000	26.31854400000000	0.00000000000000	0.00000000000000	9.01298300000000	0.00000000000000	
6.97164900000000	-52.44538500000000	801.79899699999999	59.23223400000000	0.11256400000000	0.00000000000000	0.13228500000000	-14.06012400000000	78.73579599999999	13.19842900000000	0.38728300000000	0.00000000000000	-0.05985100000000	0.00000000000000	26.21016900000000	0.00000000000000	0.00000000000000	9.39689200000000	0.00000000000000	
6.97331900000000	-52.70107200000000	798.51276299999995	58.83730400000000	0.11215300000000	0.00000000000000	0.13219200000000	-13.93037600000000	83.71219400000000	13.50035100000000	0.38947200000000	0.00000000000000	-0.06017200000000	0.00000000000000	26.10256600000000	0.00000000000000	0.00000000000000	9.71470400000000	0.00000000000000	
6.97497400000000	-52.97006100000000	795.08026500000005	58.41393000000000	0.11175100000000	0.00000000000000	0.13209500000000	-13.65784100000000	88.54614100000001	13.70945100000000	0.39152300000000	0.00000000000000	-0.06049100000000	0.00000000000000	25.99585600000000	0.00000000000000	0.00000000000000	9.97326700000000	0.00000000000000	
6.97664900000000	-53.25273400000000	791.50236299999995	57.96223000000000	0.11135700000000	0.00000000000000	0.13199400000000	-13.26478600000000	93.28959600000000	13.83943300000000	0.39344500000000	0.00000000000000	-0.06080900000000	0.00000000000000	25.89014500000000	0.00000000000000	0.00000000000000	10.18071500000000	0.00000000000000	
